HIERARCHY
ROOT Hips
{
	OFFSET 0.000000 0.000000 0.000000 
	CHANNELS 6 Xposition Yposition Zposition Yrotation Zrotation Xrotation 
	JOINT Lumbar
	{
		OFFSET 0.000000 0.000000 0.000000 
		CHANNELS 3 Zrotation Xrotation Yrotation
		JOINT Neck
		{
			OFFSET 0.000000 0.445665 0.000000 
			CHANNELS 3 Zrotation Xrotation Yrotation
			End Site
			{
				OFFSET 0.000000 0.227535 0.000000 
			}
		}
		JOINT RightShoulder
		{
			OFFSET 0.019635 0.377685 0.194865 
			CHANNELS 3 Zrotation Xrotation Yrotation
			JOINT RightElbow
			{
				OFFSET 0.000000 -0.243375 0.000000 
				CHANNELS 2 Zrotation Yrotation
				JOINT RightWrist
				{
					OFFSET 0.000000 -0.264825 0.000000 
					CHANNELS 2 Zrotation Xrotation
					End Site
					{
						OFFSET 0.006600 -0.176220 0.000990 
					}
				}
			}
		}
		JOINT LeftShoulder
		{
			OFFSET 0.019635 0.377685 -0.194865 
			CHANNELS 3 Zrotation Xrotation Yrotation
			JOINT LeftElbow
			{
				OFFSET 0.000000 -0.243375 0.000000 
				CHANNELS 2 Zrotation Yrotation
				JOINT LeftWrist
				{
					OFFSET 0.000000 -0.264825 0.000000 
					CHANNELS 2 Zrotation Xrotation
					End Site
					{
						OFFSET 0.006600 -0.176220 -0.000990 
					}
				}
			}
		}
	}
	JOINT RightHip
	{
		OFFSET 0.052140 -0.069960 0.075570 
		CHANNELS 3 Zrotation Xrotation Yrotation
		JOINT RightKnee
		{
			OFFSET 0.000000 -0.402270 0.000000 
			CHANNELS 1 Zrotation
			JOINT RightAnkle
			{
				OFFSET 0.000000 -0.404085 0.000000 
				CHANNELS 3 Zrotation Xrotation Yrotation
				End Site
				{
					OFFSET 0.204105 -0.089430 0.008415 
				}
			}
		}
	}
	JOINT LeftHip
	{
		OFFSET 0.052140 -0.069960 -0.075570 
		CHANNELS 3 Zrotation Xrotation Yrotation
		JOINT LeftKnee
		{
			OFFSET 0.000000 -0.402270 0.000000 
			CHANNELS 1 Zrotation
			JOINT LeftAnkle
			{
				OFFSET 0.000000 -0.404085 0.000000 
				CHANNELS 3 Zrotation Xrotation Yrotation
				End Site
				{
					OFFSET 0.204105 -0.089430 -0.008415 
				}
			}
		}
	}
}
MOTION
Frames: 16
Frame Time: 0.02
1.36625 -0.43916 0.31299 62.06192 5.43352 37.87791 20.69876 4.00925 -30.97614 -23.72674 -29.96586 -2.11994 -46.59334 -45.10097 -53.00478 62.8728 81.0507 -23.95382 -2.94983 38.7216 13.88864 -44.40604 65.03721 -117.16984 -20.33331 10.81438 61.24085 4.08148 -33.52847 -124.81672 -7.09295 -3.39394 -3.91445 103.3138 19.96143 12.28615 -121.12116 -9.77375 -1.11247 1.84552
1.3781 -0.45544 0.31332 63.88625 7.2427 36.27517 20.74377 2.58813 -32.10609 -24.65364 -31.7793 -2.11994 -47.77933 -40.94 -55.77404 64.96055 80.73933 -21.60266 -2.79507 39.04495 10.33966 -45.15496 63.2002 -120.87837 -22.09203 11.36301 63.55433 5.97353 -36.07329 -124.85644 -5.74284 -6.59405 -5.61035 104.94073 19.85292 10.34225 -121.74362 -10.1983 -1.2294 1.803
1.3901 -0.47135 0.31314 65.88213 9.06697 34.24168 20.5823 1.2853 -33.29507 -25.74287 -33.07623 -2.11994 -47.35659 -36.4868 -58.30215 66.15413 80.83654 -18.40306 -2.69405 39.42126 6.58765 -46.05096 61.15213 -125.24841 -24.66259 11.91063 66.1476 7.92289 -38.78431 -124.62577 -4.22393 -10.51696 -7.66141 106.92182 19.57926 8.16045 -122.35729 -10.64729 -1.31918 1.77262
1.40186 -0.48726 0.31318 67.76641 10.85079 32.45926 20.51827 -0.09291 -34.40003 -26.79034 -34.50861 -2.11994 -47.72468 -32.23633 -60.87776 67.71873 80.75964 -15.65329 -2.58203 39.74168 2.96496 -46.89591 59.20694 -129.20853 -26.82625 12.44334 68.57174 9.79078 -41.33682 -124.5255 -2.87503 -13.93652 -9.39369 108.71656 19.38667 6.13241 -122.96088 -11.08179 -1.41965 1.73748
1.41441 -0.50394 0.31322 69.79543 12.7788 30.43609 20.44069 -1.38879 -35.75056 -27.70998 -36.3522 -2.11994 -47.82258 -27.67633 -63.71248 69.43395 80.68069 -12.65404 -2.42236 40.21257 -0.83357 -47.68651 57.20112 -133.68785 -29.1941 13.05035 71.16482 11.89238 -44.22125 -124.41717 -1.13164 -18.0928 -11.7747 110.62948 19.17157 3.90238 -123.63188 -11.53116 -1.52586 1.69981
1.42531 -0.51891 0.31316 71.56151 14.40949 28.81414 20.34004 -2.81899 -36.59758 -28.93043 -37.22156 -2.11994 -48.10316 -23.69254 -65.95911 70.6213 80.68367 -9.95942 -2.37016 40.37023 -4.29957 -48.6157 55.2988 -137.17709 -31.26882 13.49355 73.47674 13.52189 -46.46199 -124.25335 -0.16978 -20.88981 -12.90923 112.37462 18.964 2.04166 -124.15689 -11.95498 -1.6144 1.66989
1.43182 -0.52932 0.31285 72.57378 15.21008 28.4144 20.24637 -4.71846 -36.09673 -30.95507 -35.50389 -2.11994 -49.34207 -21.43158 -66.54109 70.58508 80.82953 -8.37895 -2.61514 39.72678 -6.88429 -49.9514 53.54019 -138.33011 -32.8917 13.55089 74.93064 13.82105 -46.87009 -123.98908 -1.41296 -19.71842 -10.3335 113.58898 18.80791 1.24147 -124.2856 -12.3068 -1.66023 1.65895
1.43663 -0.538 0.31247 73.31266 15.71099 28.43259 20.13297 -6.74389 -35.07845 -33.27243 -32.82958 -2.11994 -50.81211 -19.75407 -66.55449 70.046 81.03383 -7.12109 -2.96297 38.75099 -9.10974 -51.40959 51.92778 -138.37451 -34.10035 13.43208 76.09565 13.64522 -46.62963 -123.67694 -3.44842 -17.16085 -6.52285 114.61768 18.66786 0.82603 -124.2655 -12.6329 -1.69132 1.65427
1.4421 -0.54743 0.31217 74.16723 16.35296 28.25502 20.01527 -8.66572 -34.25756 -35.44756 -30.60821 -2.11994 -52.14059 -17.77032 -66.8964 69.72665 81.19451 -5.66887 -3.25341 37.87531 -11.44099 -52.77123 50.38174 -138.53781 -35.1199 13.34809 77.40232 13.69526 -46.69835 -123.39234 -5.11651 -15.26285 -3.39893 115.7171 18.52436 0.24634 -124.30971 -12.96553 -1.7273 1.64749
1.44805 -0.55699 0.31167 75.064 16.9772 28.08773 19.94598 -10.77905 -33.59066 -37.67173 -28.28843 -2.11994 -53.56806 -15.94161 -66.9457 69.41174 81.44386 -4.38394 -3.58994 37.21532 -14.02142 -54.3098 48.28129 -140.28289 -37.71255 13.44887 78.6739 13.7057 -46.71242 -123.07561 -6.80612 -13.2657 0.23436 116.88542 18.35276 -0.38867 -124.36876 -13.31362 -1.76232 1.64186
1.4526 -0.56587 0.31157 75.80559 17.56418 28.00287 19.77436 -12.52514 -32.48876 -39.8556 -25.95756 -2.11994 -54.86356 -13.94228 -67.45785 68.98169 81.51493 -2.84442 -3.8553 36.02812 -15.9958 -55.50817 47.35567 -138.54487 -36.98023 13.13077 79.94752 13.68427 -46.68319 -122.81626 -8.64559 -11.13571 3.11479 117.86307 18.25344 -0.8113 -124.36039 -13.63206 -1.80578 1.63032
1.45367 -0.57331 0.3125 76.18487 18.14536 28.05548 19.32216 -13.22468 -30.23099 -41.90359 -23.79523 -2.11994 -55.76089 -11.24722 -69.51536 68.34459 81.09319 -0.47297 -3.88828 33.45196 -16.37382 -55.72559 49.79002 -126.73277 -26.64162 11.6319 81.28395 13.69745 -46.70122 -122.74102 -10.66699 -8.98138 3.52687 118.34325 18.28182 -0.76333 -124.21295 -13.80035 -1.79568 1.64163
1.4534 -0.58011 0.31385 76.4163 18.69487 28.17688 18.76957 -13.55111 -27.5681 -43.89182 -21.66387 -2.11994 -56.52103 -8.37745 -72.0363 67.61579 80.48584 2.15217 -3.84759 30.35996 -16.15504 -55.59768 53.37414 -111.58213 -13.06453 9.73017 82.63204 13.69343 -46.6957 -122.7239 -12.81819 -6.73773 3.15581 118.63871 18.39464 -0.51028 -124.0011 -13.95501 -1.81074 1.63868
1.45377 -0.58717 0.31507 76.71543 19.24317 28.26068 18.26545 -14.05014 -25.14385 -45.87507 -19.54388 -2.11994 -57.33761 -5.64246 -74.26125 66.94134 79.9514 4.62429 -3.84756 27.51226 -16.21581 -55.63481 56.3339 -98.4385 -1.31213 8.05683 83.98415 13.69285 -46.69492 -122.67221 -14.93784 -4.52812 3.20355 119.02826 18.51578 -0.33484 -123.81133 -14.16279 -1.86595 1.61603
1.45394 -0.5943 0.31604 77.00446 19.84684 28.38426 17.74714 -14.54097 -22.47176 -48.00221 -17.28285 -2.11994 -58.18741 -2.69251 -76.8236 66.19496 79.46502 7.24539 -3.82161 24.60785 -16.22999 -55.64256 59.72982 -83.20485 11.94105 6.18573 85.29314 13.69438 -46.69701 -122.65286 -16.97589 -2.295 3.0325 119.3707 18.44539 -0.20928 -123.64547 -14.16539 -1.69879 1.70589
1.45423 -0.60115 0.31762 77.28111 20.33162 28.43754 17.23649 -14.95829 -20.22591 -49.81428 -15.33535 -2.11994 -58.93102 -0.1429 -78.80455 65.58368 78.83689 9.62002 -3.82987 21.70775 -16.20291 -55.6273 62.48691 -71.52581 22.83614 4.63358 86.69078 13.6934 -46.69566 -122.5809 -19.19601 -0.11172 3.11026 119.76735 18.78735 0.06058 -123.41802 -14.60018 -2.00608 1.55575
